<svg xmlns="http://www.w3.org/2000/svg" version="1.1" x="0" y="0" width="33.5" height="32.9" viewBox="-546.2 751.2 33.5 32.9" enable-background="new -546.2 751.2 33.5 32.9" xml:space="preserve"><path fill="#FFFFFF" stroke="#FFFFFF" stroke-width="4" d="M-513.2 774.7l-1-0.1c-4.8-0.6-9.6-1.2-14.4-1.8 -1.6-0.2-3 0.2-4.2 1.3 -2.2 2.1-4.3 4.4-6.4 6.6 -0.9 0.9-1.8 1.7-3.2 1.3 -1.1-0.3-1.8-1.5-1.8-3.1 0-7.4 0-14.8 0-22.2 0-1.9 0.6-2.8 1.9-3.3 1.5-0.6 2.4 0.2 3.4 1.2 2.3 2.4 4.6 4.7 7.1 6.9 0.6 0.6 1.8 0.8 2.7 0.8 2.2-0.1 4.3-0.3 6.5-0.6 3.2-0.4 6.3-0.8 9.5-1.3M-513.2 761.9c-2.4 0.4-4.6 0.7-6.9 1 -2.8 0.4-5.7 0.6-8.6 1 -1.9 0.2-3.5-0.4-4.8-1.7 -2.3-2.2-4.4-4.4-6.7-6.6 -0.4-0.4-1.2-0.7-1.5-0.7 -0.5 0.1-0.9 0.5-0.9 1.6 0 7.4 0 14.9 0 22.3 0 0.5 0.2 1.5 0.7 1.6 0.3 0.1 1.1-0.5 1.5-0.9 2.3-2.3 4.5-4.7 6.9-6.9 1.2-1.2 2.8-1.6 4.6-1.4 4.9 0.7 9.9 1.2 14.8 1.8 0.3 0 0.5 0 0.9 0.1"/></svg>