<svg xmlns="http://www.w3.org/2000/svg" version="1.1" x="0" y="0" width="64" height="53.6" viewBox="0 0 64 53.6" xml:space="preserve"><path d="M30.9 19.6c3.2 0.5 6.3 0.9 9.5 1.3 2.2 0.3 4.3 0.5 6.5 0.6 0.9 0 2.1-0.2 2.7-0.8 2.5-2.2 4.8-4.5 7.1-6.9 1-1 1.9-1.8 3.4-1.2 1.3 0.5 1.9 1.4 1.9 3.3 0 7.4 0 14.8 0 22.2 0 1.6-0.7 2.8-1.8 3.1 -1.4 0.4-2.3-0.4-3.2-1.3 -2.1-2.2-4.2-4.5-6.4-6.6 -1.2-1.1-2.6-1.5-4.2-1.3 -4.8 0.6-9.6 1.2-14.4 1.8l-1 0.1 0 1.2c0 3.5-0.2 7.1 0 10.6 0.3 4.4-3.9 6.3-6.9 5.7 -5.9-1.3-11.8-2.4-17.7-3.6C3.7 47.4 2 45.3 2 42.7 2 32.1 2 21.6 2 11c0-2.7 1.6-4.7 4.3-5.2 6.2-1.3 12.3-2.5 18.5-3.7 3-0.6 6.1 1.9 6.1 5 0 3.6 0 7.2 0 10.7C30.9 18.4 30.9 18.9 30.9 19.6zM29.3 21c-8.6-1.4-17.1-2.8-25.7-4.2 0 6.7 0 13.3 0 20 8.6-1.4 17.1-2.8 25.7-4.2C29.3 28.7 29.3 25 29.3 21zM31 32.3c0.4-0.1 0.6-0.1 0.9-0.1 4.9-0.6 9.9-1.1 14.8-1.8 1.8-0.2 3.4 0.2 4.6 1.4 2.4 2.2 4.6 4.6 6.9 6.9 0.4 0.4 1.2 1 1.5 0.9 0.5-0.1 0.7-1.1 0.7-1.6 0-7.4 0-14.9 0-22.3 0-1.1-0.4-1.5-0.9-1.6 -0.3 0-1.1 0.3-1.5 0.7 -2.3 2.2-4.4 4.4-6.7 6.6 -1.3 1.3-2.9 1.9-4.8 1.7 -2.9-0.4-5.8-0.6-8.6-1 -2.3-0.3-4.5-0.6-6.9-1C31 25 31 28.6 31 32.3zM3.6 38.4c0 1.5 0 2.9 0 4.2 0 1.9 1 3.2 2.8 3.7 0.8 0.2 1.7 0.3 2.5 0.5 5.2 1.1 10.4 2.1 15.7 3.2 2.6 0.5 4.8-1.2 4.8-3.9 0-3.5 0-7 0-10.5 0-0.4 0-0.8 0-1.4C20.8 35.5 12.2 37 3.6 38.4zM3.7 15.2l1.2 0.2c5.3 0.8 10.6 1.8 15.9 2.6 2.8 0.5 5.7 0.9 8.7 1.4 0-0.6 0-1 0-1.5 0-3.4 0-6.8 0-10.2 0-2.9-2.2-4.6-5.1-4C18.7 4.9 12.9 6.1 7.1 7.2 4.9 7.6 3.7 9 3.7 11.3L3.7 15.2z" style="fill:#FFF;stroke-width:4;stroke:#FFF"/></svg>