<svg xmlns="http://www.w3.org/2000/svg" version="1.1" x="0" y="0" width="33" height="53.5" viewBox="-515 740.9 33 53.5" enable-background="new -515 740.9 33 53.5" xml:space="preserve"><path fill="#FFFFFF" stroke="#FFFFFF" stroke-width="4" d="M-512.9 760.5c0-0.7 0-1.2 0-1.8 0-3.5 0-7.1 0-10.7 0-3.1 3.1-5.6 6.1-5 6.2 1.2 12.3 2.4 18.5 3.7 2.7 0.5 4.3 2.5 4.3 5.2 0 10.6 0 21.1 0 31.7 0 2.6-1.7 4.7-4.4 5.1 -5.9 1.2-11.8 2.3-17.7 3.6 -3 0.6-7.2-1.3-6.9-5.7 0.2-3.5 0-7.1 0-10.6v-1.2M-511.3 773.5c8.6 1.4 17.1 2.8 25.7 4.2 0-6.7 0-13.3 0-20 -8.6 1.4-17.1 2.8-25.7 4.2C-511.3 765.9-511.3 769.6-511.3 773.5zM-513 773.2c0-3.7 0-7.3 0-11.2M-511.4 775.1c0 0.6 0 1 0 1.4 0 3.5 0 7 0 10.5 0 2.7 2.2 4.4 4.8 3.9 5.3-1.1 10.5-2.1 15.7-3.2 0.8-0.2 1.7-0.3 2.5-0.5 1.8-0.5 2.8-1.8 2.8-3.7 0-1.3 0-2.7 0-4.2C-494.2 777.9-502.8 776.4-511.4 775.1zM-485.7 752.2c0-2.3-1.2-3.7-3.4-4.1 -5.8-1.1-11.6-2.3-17.3-3.5 -2.9-0.6-5.1 1.1-5.1 4 0 3.4 0 6.8 0 10.2 0 0.5 0 0.9 0 1.5 3-0.5 5.9-0.9 8.7-1.4 5.3-0.8 10.6-1.8 15.9-2.6l1.2-0.2V752.2L-485.7 752.2z"/></svg>